<mxfile host="app.diagrams.net" modified="2021-12-13T01:19:06.064Z" agent="5.0 (Windows NT 10.0; Win64; x64) AppleWebKit/537.36 (KHTML, like Gecko) Chrome/96.0.4664.93 Safari/537.36" etag="BYgm6oo4uXiefFJlsKqY" version="15.9.4" type="github">
  <diagram id="P02WFDSnxD9wmOQgXKEX" name="Page-1">
    <mxGraphModel dx="1108" dy="435" grid="1" gridSize="10" guides="1" tooltips="1" connect="1" arrows="1" fold="1" page="1" pageScale="1" pageWidth="827" pageHeight="1169" math="0" shadow="0">
      <root>
        <mxCell id="0" />
        <mxCell id="1" parent="0" />
        <mxCell id="uBMKmfFhNlp-wqp5Tmng-2" value="User" style="shape=umlActor;verticalLabelPosition=bottom;verticalAlign=top;html=1;outlineConnect=0;" vertex="1" parent="1">
          <mxGeometry x="140" y="480" width="30" height="60" as="geometry" />
        </mxCell>
        <mxCell id="uBMKmfFhNlp-wqp5Tmng-4" value="Hiển thị thông tin nhận từ sensor" style="ellipse;whiteSpace=wrap;html=1;" vertex="1" parent="1">
          <mxGeometry x="397.5" y="420" width="150" height="70" as="geometry" />
        </mxCell>
        <mxCell id="uBMKmfFhNlp-wqp5Tmng-6" value="Tính lượng tiêu thủ điện" style="ellipse;whiteSpace=wrap;html=1;" vertex="1" parent="1">
          <mxGeometry x="405" y="520" width="145" height="70" as="geometry" />
        </mxCell>
        <mxCell id="uBMKmfFhNlp-wqp5Tmng-7" value="Điều khiển thiết bị và cập nhật trạng thái" style="ellipse;whiteSpace=wrap;html=1;" vertex="1" parent="1">
          <mxGeometry x="397.5" y="630" width="155" height="70" as="geometry" />
        </mxCell>
        <mxCell id="uBMKmfFhNlp-wqp5Tmng-8" value="Đăng nhập" style="ellipse;whiteSpace=wrap;html=1;" vertex="1" parent="1">
          <mxGeometry x="402.5" y="320" width="140" height="70" as="geometry" />
        </mxCell>
        <mxCell id="uBMKmfFhNlp-wqp5Tmng-15" value="" style="endArrow=none;html=1;rounded=0;exitX=0.5;exitY=0.5;exitDx=0;exitDy=0;exitPerimeter=0;entryX=0;entryY=0.5;entryDx=0;entryDy=0;" edge="1" parent="1" source="uBMKmfFhNlp-wqp5Tmng-2" target="uBMKmfFhNlp-wqp5Tmng-8">
          <mxGeometry width="50" height="50" relative="1" as="geometry">
            <mxPoint x="470" y="540" as="sourcePoint" />
            <mxPoint x="520" y="490" as="targetPoint" />
          </mxGeometry>
        </mxCell>
        <mxCell id="uBMKmfFhNlp-wqp5Tmng-16" value="" style="endArrow=none;html=1;rounded=0;exitX=0.5;exitY=0.5;exitDx=0;exitDy=0;exitPerimeter=0;entryX=0;entryY=0.5;entryDx=0;entryDy=0;" edge="1" parent="1" source="uBMKmfFhNlp-wqp5Tmng-2" target="uBMKmfFhNlp-wqp5Tmng-4">
          <mxGeometry width="50" height="50" relative="1" as="geometry">
            <mxPoint x="480" y="550" as="sourcePoint" />
            <mxPoint x="530" y="500" as="targetPoint" />
          </mxGeometry>
        </mxCell>
        <mxCell id="uBMKmfFhNlp-wqp5Tmng-17" value="" style="endArrow=none;html=1;rounded=0;exitX=0.5;exitY=0.5;exitDx=0;exitDy=0;exitPerimeter=0;entryX=0;entryY=0.5;entryDx=0;entryDy=0;" edge="1" parent="1" source="uBMKmfFhNlp-wqp5Tmng-2" target="uBMKmfFhNlp-wqp5Tmng-6">
          <mxGeometry width="50" height="50" relative="1" as="geometry">
            <mxPoint x="490" y="560" as="sourcePoint" />
            <mxPoint x="540" y="510" as="targetPoint" />
          </mxGeometry>
        </mxCell>
        <mxCell id="uBMKmfFhNlp-wqp5Tmng-18" value="" style="endArrow=none;html=1;rounded=0;exitX=0.5;exitY=0.5;exitDx=0;exitDy=0;exitPerimeter=0;entryX=0;entryY=0.5;entryDx=0;entryDy=0;" edge="1" parent="1" source="uBMKmfFhNlp-wqp5Tmng-2" target="uBMKmfFhNlp-wqp5Tmng-7">
          <mxGeometry width="50" height="50" relative="1" as="geometry">
            <mxPoint x="500" y="570" as="sourcePoint" />
            <mxPoint x="550" y="520" as="targetPoint" />
          </mxGeometry>
        </mxCell>
        <mxCell id="uBMKmfFhNlp-wqp5Tmng-19" value="Nhận diện người" style="ellipse;whiteSpace=wrap;html=1;" vertex="1" parent="1">
          <mxGeometry x="405" y="760" width="140" height="70" as="geometry" />
        </mxCell>
        <mxCell id="uBMKmfFhNlp-wqp5Tmng-20" value="" style="endArrow=none;html=1;rounded=0;exitX=0.5;exitY=0;exitDx=0;exitDy=0;entryX=0.5;entryY=1;entryDx=0;entryDy=0;" edge="1" parent="1" source="uBMKmfFhNlp-wqp5Tmng-19" target="uBMKmfFhNlp-wqp5Tmng-7">
          <mxGeometry width="50" height="50" relative="1" as="geometry">
            <mxPoint x="470" y="840" as="sourcePoint" />
            <mxPoint x="520" y="790" as="targetPoint" />
          </mxGeometry>
        </mxCell>
        <mxCell id="uBMKmfFhNlp-wqp5Tmng-21" value="Bật/tắt khi phát hiện có người" style="text;html=1;strokeColor=none;fillColor=none;align=center;verticalAlign=middle;whiteSpace=wrap;rounded=0;" vertex="1" parent="1">
          <mxGeometry x="470" y="720" width="120" height="30" as="geometry" />
        </mxCell>
      </root>
    </mxGraphModel>
  </diagram>
</mxfile>
